<svg width="70" height="70" viewBox="0 0 70 70" fill="none" xmlns="http://www.w3.org/2000/svg">
<path d="M70 35C70 15.67 54.33 1.52588e-05 35 1.52588e-05C15.67 1.52588e-05 0 15.67 0 35C0 52.4695 12.799 66.9491 29.5312 69.5748V45.1172H20.6445V35H29.5312V27.2891C29.5312 18.5172 34.7565 13.6719 42.7513 13.6719C46.5806 13.6719 50.5859 14.3555 50.5859 14.3555V22.9688H46.1725C41.8247 22.9688 40.4688 25.6667 40.4688 28.4346V35H50.1758L48.624 45.1172H40.4688V69.5748C57.201 66.9491 70 52.4695 70 35Z" fill="#1877F2"/>
<path d="M48.624 45.1172L50.1758 35.0001H40.4687V28.4346C40.4687 25.6667 41.8246 22.9688 46.1725 22.9688H50.5859V14.3555C50.5859 14.3555 46.5805 13.6719 42.7513 13.6719C34.7565 13.6719 29.5312 18.5173 29.5312 27.2891V35.0001H20.6445V45.1172H29.5312V69.5749C31.3132 69.8545 33.1395 70.0001 35 70.0001C36.8605 70.0001 38.6868 69.8545 40.4687 69.5749V45.1172H48.624Z" fill="white"/>
</svg>
