<svg width="50" height="40" viewBox="0 0 50 40" fill="none" xmlns="http://www.w3.org/2000/svg">
<g clip-path="url(#clip0)">
<path d="M3.40909 40H11.3636V19.3939L0 10.303V36.3636C0 38.3758 1.52841 40 3.40909 40Z" fill="#4285F4"/>
<path d="M38.6364 40H46.5909C48.4773 40 50 38.3697 50 36.3636V10.303L38.6364 19.3939" fill="#34A853"/>
<path d="M38.6364 3.63636V19.3939L50 10.303V5.45455C50 0.957577 45.1875 -1.60606 41.8182 1.09091" fill="#FBBC04"/>
<path d="M11.3636 19.3939V3.63635L25 14.5454L38.6364 3.63635V19.3939L25 30.303" fill="#EA4335"/>
<path d="M0 5.45455V10.303L11.3636 19.3939V3.63636L8.18182 1.09091C4.80682 -1.60606 0 0.957577 0 5.45455Z" fill="#C5221F"/>
</g>
<defs>
<clipPath id="clip0">
<rect width="50" height="40" fill="white"/>
</clipPath>
</defs>
</svg>
