<svg width="35" height="35" viewBox="0 0 35 35" fill="none" xmlns="http://www.w3.org/2000/svg">
<path d="M6.5625 30.625C6.5625 30.625 4.375 30.625 4.375 28.4375C4.375 26.25 6.5625 19.6875 17.5 19.6875C28.4375 19.6875 30.625 26.25 30.625 28.4375C30.625 30.625 28.4375 30.625 28.4375 30.625H6.5625ZM17.5 17.5C19.2405 17.5 20.9097 16.8086 22.1404 15.5779C23.3711 14.3472 24.0625 12.678 24.0625 10.9375C24.0625 9.19702 23.3711 7.52782 22.1404 6.29711C20.9097 5.0664 19.2405 4.375 17.5 4.375C15.7595 4.375 14.0903 5.0664 12.8596 6.29711C11.6289 7.52782 10.9375 9.19702 10.9375 10.9375C10.9375 12.678 11.6289 14.3472 12.8596 15.5779C14.0903 16.8086 15.7595 17.5 17.5 17.5Z" fill="white"/>
</svg>
