<svg width="64" height="64" viewBox="0 0 64 64" fill="none" xmlns="http://www.w3.org/2000/svg">
<g clip-path="url(#clip0)">
<path d="M54.23 12.566C52.117 10.996 49.21 9.967 47.029 9.254C42.81 7.876 36.488 7.153 31.999 7.007V7C31.974 7 31.946 7.004 31.922 7.004C31.897 7.004 31.87 7 31.844 7V7.008C27.357 7.154 21.034 7.877 16.814 9.255C14.634 9.968 11.724 10.997 9.612 12.567C4.919 12.813 0.424995 18.797 0.028995 21.514C-0.392005 24.419 3.337 27.293 8.37 27.937C13.39 28.576 17.808 26.738 18.233 23.833C18.402 22.671 18.011 20.747 17.171 18.813C21.802 16.873 27.415 15.898 31.92 15.711C36.423 15.898 42.036 16.873 46.669 18.813C45.828 20.745 45.439 22.669 45.606 23.833C46.031 26.738 50.446 28.576 55.471 27.937C60.501 27.292 64.234 24.419 63.811 21.514C63.416 18.797 58.923 12.812 54.227 12.566" fill="black"/>
<path d="M58.758 55.609V39.952L43.45 21.582V15.459H38.35V19.14H25.354V15.459H20.252V21.582L4.94199 39.952V55.609H58.758Z" fill="black"/>
<path d="M26.76 31.25C26.76 32.311 26.017 33.167 25.109 33.167H22.279C21.367 33.167 20.628 32.312 20.628 31.25V28.883C20.628 27.828 21.367 26.973 22.279 26.973H25.109C26.017 26.973 26.76 27.828 26.76 28.883V31.25Z" fill="white"/>
<path d="M34.91 31.25C34.91 32.311 34.172 33.167 33.262 33.167H30.433C29.521 33.167 28.782 32.312 28.782 31.25V28.883C28.782 27.828 29.521 26.973 30.433 26.973H33.262C34.172 26.973 34.91 27.828 34.91 28.883V31.25Z" fill="white"/>
<path d="M42.881 31.25C42.881 32.311 42.138 33.167 41.228 33.167H38.4C37.488 33.167 36.749 32.312 36.749 31.25V28.883C36.749 27.828 37.488 26.973 38.4 26.973H41.228C42.138 26.973 42.881 27.828 42.881 28.883V31.25Z" fill="white"/>
<path d="M26.854 39.34C26.854 40.398 26.111 41.253 25.203 41.253H22.372C21.46 41.253 20.721 40.398 20.721 39.34V36.971C20.721 35.918 21.46 35.062 22.372 35.062H25.203C26.111 35.062 26.854 35.918 26.854 36.971V39.34Z" fill="white"/>
<path d="M35.01 39.34C35.01 40.398 34.273 41.253 33.361 41.253H30.533C29.621 41.253 28.882 40.398 28.882 39.34V36.971C28.882 35.918 29.621 35.062 30.533 35.062H33.361C34.273 35.062 35.01 35.918 35.01 36.971V39.34Z" fill="white"/>
<path d="M42.975 39.34C42.975 40.398 42.233 41.253 41.323 41.253H38.494C37.583 41.253 36.844 40.398 36.844 39.34V36.971C36.844 35.918 37.583 35.062 38.494 35.062H41.323C42.233 35.062 42.975 35.918 42.975 36.971V39.34Z" fill="white"/>
<path d="M26.948 47.672C26.948 48.728 26.205 49.585 25.297 49.585H22.466C21.554 49.585 20.815 48.728 20.815 47.672V45.304C20.815 44.25 21.554 43.394 22.466 43.394H25.297C26.205 43.394 26.948 44.25 26.948 45.304V47.672Z" fill="white"/>
<path d="M35.1 47.672C35.1 48.728 34.359 49.585 33.449 49.585H30.62C29.708 49.585 28.969 48.728 28.969 47.672V45.304C28.969 44.25 29.708 43.394 30.62 43.394H33.449C34.359 43.394 35.1 44.25 35.1 45.304V47.672Z" fill="white"/>
<path d="M43.07 47.672C43.07 48.728 42.329 49.585 41.419 49.585H38.591C37.677 49.585 36.94 48.728 36.94 47.672V45.304C36.94 44.25 37.677 43.394 38.591 43.394H41.419C42.329 43.394 43.07 44.25 43.07 45.304V47.672Z" fill="white"/>
</g>
<defs>
<clipPath id="clip0">
<rect width="64" height="64" fill="white"/>
</clipPath>
</defs>
</svg>
