<svg width="40" height="40" viewBox="0 0 40 40" fill="none" xmlns="http://www.w3.org/2000/svg">
<g clip-path="url(#clip0)">
<path d="M33.8931 7.85375C32.5725 6.8725 30.7556 6.22937 29.3925 5.78375C26.7556 4.9225 22.8044 4.47062 19.9988 4.37937V4.375C19.9831 4.375 19.9656 4.3775 19.9506 4.3775C19.935 4.3775 19.9181 4.375 19.9019 4.375V4.38C17.0975 4.47125 13.1456 4.92313 10.5081 5.78437C9.14564 6.23 7.32689 6.87313 6.00689 7.85437C3.07376 8.00812 0.265012 11.7481 0.0175115 13.4462C-0.245614 15.2619 2.08501 17.0581 5.23064 17.4606C8.36814 17.86 11.1294 16.7112 11.395 14.8956C11.5006 14.1694 11.2563 12.9669 10.7313 11.7581C13.6256 10.5456 17.1338 9.93625 19.9494 9.81937C22.7638 9.93625 26.2719 10.5456 29.1675 11.7581C28.6419 12.9656 28.3988 14.1681 28.5031 14.8956C28.7688 16.7112 31.5281 17.86 34.6688 17.4606C37.8125 17.0575 40.1456 15.2619 39.8813 13.4462C39.6344 11.7481 36.8263 8.0075 33.8913 7.85375" fill="white"/>
<path d="M36.7239 34.7556V24.97L27.1564 13.4887V9.66187H23.9689V11.9625H15.8464V9.66187H12.6576V13.4887L3.08887 24.97V34.7556H36.7239Z" fill="white"/>
<path d="M16.7251 19.5312C16.7251 20.1944 16.2607 20.7294 15.6932 20.7294H13.9245C13.3545 20.7294 12.8926 20.195 12.8926 19.5312V18.0519C12.8926 17.3925 13.3545 16.8581 13.9245 16.8581H15.6932C16.2607 16.8581 16.7251 17.3925 16.7251 18.0519V19.5312Z" fill="black"/>
<path d="M21.8188 19.5312C21.8188 20.1944 21.3575 20.7294 20.7888 20.7294H19.0206C18.4506 20.7294 17.9888 20.195 17.9888 19.5312V18.0519C17.9888 17.3925 18.4506 16.8581 19.0206 16.8581H20.7888C21.3575 16.8581 21.8188 17.3925 21.8188 18.0519V19.5312Z" fill="black"/>
<path d="M26.8008 19.5312C26.8008 20.1944 26.3364 20.7294 25.7676 20.7294H24.0001C23.4301 20.7294 22.9683 20.195 22.9683 19.5312V18.0519C22.9683 17.3925 23.4301 16.8581 24.0001 16.8581H25.7676C26.3364 16.8581 26.8008 17.3925 26.8008 18.0519V19.5312Z" fill="black"/>
<path d="M16.7838 24.5875C16.7838 25.2488 16.3194 25.7831 15.7519 25.7831H13.9826C13.4126 25.7831 12.9507 25.2488 12.9507 24.5875V23.1069C12.9507 22.4488 13.4126 21.9138 13.9826 21.9138H15.7519C16.3194 21.9138 16.7838 22.4488 16.7838 23.1069V24.5875Z" fill="black"/>
<path d="M21.8813 24.5875C21.8813 25.2488 21.4206 25.7831 20.8506 25.7831H19.0831C18.5131 25.7831 18.0513 25.2488 18.0513 24.5875V23.1069C18.0513 22.4488 18.5131 21.9138 19.0831 21.9138H20.8506C21.4206 21.9138 21.8813 22.4488 21.8813 23.1069V24.5875Z" fill="black"/>
<path d="M26.8595 24.5875C26.8595 25.2488 26.3957 25.7831 25.827 25.7831H24.0588C23.4895 25.7831 23.0276 25.2488 23.0276 24.5875V23.1069C23.0276 22.4488 23.4895 21.9138 24.0588 21.9138H25.827C26.3957 21.9138 26.8595 22.4488 26.8595 23.1069V24.5875Z" fill="black"/>
<path d="M16.8424 29.795C16.8424 30.455 16.378 30.9906 15.8105 30.9906H14.0412C13.4712 30.9906 13.0093 30.455 13.0093 29.795V28.315C13.0093 27.6562 13.4712 27.1212 14.0412 27.1212H15.8105C16.378 27.1212 16.8424 27.6562 16.8424 28.315V29.795Z" fill="black"/>
<path d="M21.9376 29.795C21.9376 30.455 21.4745 30.9906 20.9057 30.9906H19.1376C18.5676 30.9906 18.1057 30.455 18.1057 29.795V28.315C18.1057 27.6562 18.5676 27.1212 19.1376 27.1212H20.9057C21.4745 27.1212 21.9376 27.6562 21.9376 28.315V29.795Z" fill="black"/>
<path d="M26.9187 29.795C26.9187 30.455 26.4555 30.9906 25.8868 30.9906H24.1193C23.548 30.9906 23.0874 30.455 23.0874 29.795V28.315C23.0874 27.6562 23.548 27.1212 24.1193 27.1212H25.8868C26.4555 27.1212 26.9187 27.6562 26.9187 28.315V29.795Z" fill="black"/>
</g>
<defs>
<clipPath id="clip0">
<rect width="40" height="40" fill="white"/>
</clipPath>
</defs>
</svg>
